<?xml version="1.0" standalone="no"?>
<!DOCTYPE svg PUBLIC "-//W3C//DTD SVG 20010904//EN"
 "http://www.w3.org/TR/2001/REC-SVG-20010904/DTD/svg10.dtd">
<svg version="1.0" xmlns="http://www.w3.org/2000/svg"
 width="500.000000pt" height="500.000000pt" viewBox="0 0 500.000000 500.000000"
 preserveAspectRatio="xMidYMid meet">
<metadata>
Created by potrace 1.14, written by Peter Selinger 2001-2017
</metadata>
<g transform="translate(0.000000,500.000000) scale(0.100000,-0.100000)"
fill="#000000" stroke="none">
<path d="M2425 3465 c0 -105 2 -125 15 -125 13 0 15 18 12 119 -3 108 -1 120
15 124 11 3 6 5 -12 6 l-30 1 0 -125z"/>
<path d="M2523 3583 c45 -5 71 -37 61 -77 -8 -33 -31 -46 -86 -47 -24 -1 -33
-4 -20 -6 24 -5 85 -89 78 -108 -2 -6 9 -10 23 -10 l27 -1 -37 56 c-37 54 -37
55 -16 63 35 13 57 38 57 66 0 46 -35 72 -92 69 -32 -1 -32 -1 5 -5z"/>
<path d="M2127 3523 c-15 -4 -15 -7 -3 -24 7 -11 26 -64 42 -119 17 -58 34
-100 41 -100 17 0 17 0 -22 124 -19 60 -32 113 -29 118 5 8 0 9 -29 1z"/>
<path d="M2757 3512 c-15 -9 -37 -36 -48 -60 -26 -52 -20 -99 17 -139 l25 -28
-15 32 c-42 86 3 186 92 203 l37 8 -40 1 c-22 0 -53 -7 -68 -17z"/>
<path d="M2893 3500 c35 -28 44 -79 23 -134 -22 -56 -47 -78 -99 -87 l-42 -6
40 -2 c51 -1 84 16 112 58 35 51 31 111 -8 156 -17 19 -36 35 -41 35 -6 0 1
-9 15 -20z"/>
<path d="M1969 3441 l-23 -18 32 5 c21 3 29 8 25 18 -7 18 -6 18 -34 -5z"/>
<path d="M1855 3361 c-3 -6 23 -50 59 -98 35 -48 65 -96 67 -105 4 -16 6 -15
29 3 14 12 20 18 13 15 -7 -4 -40 33 -83 94 -40 55 -73 100 -75 100 -2 0 -6
-4 -10 -9z"/>
<path d="M2318 3337 l-27 -27 27 6 c34 9 34 9 30 31 -3 16 -6 15 -30 -10z"/>
<path d="M3076 3349 c-14 -11 -26 -27 -26 -36 0 -8 17 -46 38 -85 l37 -69 -28
-25 c-19 -16 -23 -24 -13 -24 24 0 56 37 56 63 0 12 -16 47 -35 77 -19 30 -35
58 -35 63 0 4 11 19 25 32 29 30 18 33 -19 4z"/>
<path d="M3130 3356 c0 -2 7 -7 16 -10 8 -3 12 -2 9 4 -6 10 -25 14 -25 6z"/>
<path d="M1991 3336 c-9 -11 -6 -12 14 -8 14 2 25 8 25 13 0 14 -26 11 -39 -5z"/>
<path d="M3184 3313 c9 -18 16 -40 17 -50 0 -15 2 -14 11 5 10 20 8 27 -16 50
l-28 27 16 -32z"/>
<path d="M2111 3287 c-1 -10 -8 -32 -17 -49 l-16 -30 26 18 c27 20 29 28 16
59 -8 18 -9 18 -9 2z"/>
<path d="M2965 3227 c-9 -21 10 -69 37 -94 l21 -18 -18 28 c-10 16 -21 45 -25
65 -5 29 -9 33 -15 19z"/>
<path d="M1694 3195 c-7 -17 4 -37 16 -30 10 6 169 -61 190 -80 14 -12 17 -11
29 6 7 12 11 22 9 23 -2 0 -34 12 -72 24 -38 13 -92 34 -118 47 -40 19 -50 21
-54 10z"/>
<path d="M3320 3154 c0 -13 -177 -117 -197 -117 -18 0 -16 -16 1 -23 8 -3 57
19 108 49 51 30 99 56 106 58 10 3 9 9 -2 24 -9 11 -16 15 -16 9z"/>
<path d="M2392 3136 c-119 -29 -122 -103 -4 -122 77 -12 160 38 150 90 -5 25
-3 26 36 25 48 0 108 -19 113 -36 6 -18 -33 -49 -95 -74 -52 -22 -72 -24 -216
-24 l-159 0 -9 -24 c-13 -35 -2 -69 37 -123 28 -39 44 -50 81 -59 26 -7 66
-27 89 -44 95 -73 123 -74 165 -8 17 26 30 54 30 62 0 31 80 141 102 141 17 0
7 -53 -17 -88 -19 -27 -25 -50 -25 -88 0 -49 -2 -53 -42 -80 -41 -29 -44 -29
-182 -30 -163 -1 -167 1 -191 81 -10 37 -26 63 -51 84 -66 58 -81 24 -34 -78
40 -86 84 -130 180 -177 85 -42 134 -51 181 -35 18 6 34 9 37 6 3 -2 -3 -31
-12 -63 -28 -101 -17 -234 14 -159 5 12 20 33 35 46 14 13 33 36 42 51 19 33
43 46 95 53 l37 6 -58 -57 c-39 -39 -64 -75 -80 -114 -19 -47 -29 -59 -56 -68
-29 -10 -40 -8 -87 17 -50 26 -61 28 -175 28 -84 0 -123 -4 -123 -11 0 -37 97
-104 150 -104 35 0 150 -41 175 -63 22 -19 26 -31 27 -84 1 -45 5 -63 15 -63
17 0 18 105 0 139 -14 29 -82 66 -152 82 -27 7 -67 16 -87 21 -21 5 -50 20
-65 34 l-28 25 27 -4 c14 -2 53 0 85 4 53 7 64 5 125 -23 107 -49 158 -32 192
62 14 39 36 67 102 129 46 43 84 83 84 90 0 14 0 14 -43 -4 -20 -8 -50 -15
-67 -15 -47 0 -84 -24 -124 -80 -20 -27 -41 -50 -46 -50 -13 0 -6 50 18 128
14 46 14 54 1 67 -13 13 -21 13 -65 -1 l-50 -17 -84 37 c-47 21 -89 42 -94 47
-6 5 42 7 123 5 150 -5 176 1 239 52 41 33 43 38 37 73 -6 32 -1 48 25 94 53
93 26 154 -44 100 -27 -21 -50 -55 -84 -127 -43 -91 -48 -98 -76 -98 -18 0
-44 13 -72 35 -24 20 -68 44 -99 54 -31 10 -57 20 -59 22 -45 60 -56 81 -56
107 0 17 3 33 8 35 4 3 55 0 113 -5 76 -7 121 -7 160 1 63 14 179 69 193 92
16 28 -1 66 -35 78 -42 15 -211 13 -277 -3z m114 -30 c17 -13 17 -16 4 -29
-13 -13 -20 -13 -50 0 -33 14 -34 16 -15 29 24 18 36 18 61 0z m-106 -11 c0
-8 14 -22 31 -30 38 -20 32 -28 -20 -27 -71 1 -106 37 -58 60 31 15 47 14 47
-3z m-195 -312 c13 -16 25 -36 25 -46 0 -10 10 -37 21 -60 l22 -42 -22 19
c-19 17 -81 132 -81 150 0 12 12 5 35 -21z"/>
<path d="M1607 3063 c-3 -5 7 -17 21 -27 14 -11 22 -14 18 -8 -10 17 -15 17
162 -23 17 -4 22 -1 22 15 0 12 -4 19 -8 16 -5 -3 -48 4 -97 15 -99 21 -112
22 -118 12z"/>
<path d="M3393 3012 c0 -21 4 -29 14 -25 7 3 13 8 13 12 0 4 -6 15 -13 25 -13
17 -14 16 -14 -12z"/>
<path d="M3294 2996 c1 -25 10 -34 20 -18 2 4 -2 15 -9 25 -12 17 -13 16 -11
-7z"/>
<path d="M1730 2934 c30 -32 56 -60 56 -62 1 -1 4 3 6 10 3 7 -22 35 -56 62
l-61 49 55 -59z"/>
<path d="M3182 2908 c9 -13 23 -24 32 -26 27 -6 18 12 -16 31 l-31 18 15 -23z"/>
<path d="M1527 2542 c-35 -38 -9 -102 40 -102 47 0 71 71 35 103 -24 22 -55
21 -75 -1z"/>
<path d="M3392 2538 c-17 -17 -15 -64 4 -82 35 -35 94 -12 94 37 0 41 -15 57
-55 57 -17 0 -36 -5 -43 -12z"/>
<path d="M1710 2168 c-19 -12 -36 -23 -38 -24 -2 -1 1 -12 8 -23 10 -20 50
-30 50 -12 0 5 9 11 20 14 23 6 27 39 7 55 -9 8 -22 5 -47 -10z m47 -13 c8
-23 -4 -30 -24 -14 -15 12 -16 12 -10 -3 8 -24 -11 -34 -30 -15 -14 13 -12 16
13 30 38 20 44 20 51 2z"/>
<path d="M3230 2160 c-9 -17 -5 -22 29 -40 41 -20 70 -28 39 -9 -24 13 -23 29
1 29 11 0 23 5 27 11 4 8 0 9 -15 4 -14 -4 -23 -1 -27 9 -9 22 -41 20 -54 -4z
m44 2 c8 -13 -11 -35 -23 -28 -16 10 -14 36 3 36 8 0 17 -4 20 -8z"/>
<path d="M1772 2054 c-28 -19 -28 -49 0 -68 19 -13 25 -14 42 -3 36 24 42 44
22 66 -23 25 -34 26 -64 5z m57 -8 c18 -22 -3 -56 -35 -56 -32 0 -41 25 -19
50 21 24 38 25 54 6z"/>
<path d="M3160 2049 c-24 -43 43 -92 78 -57 17 17 15 42 -6 61 -25 23 -59 21
-72 -4z m64 -2 c22 -16 17 -50 -7 -55 -29 -6 -59 26 -46 49 11 22 28 24 53 6z"/>
<path d="M3084 1959 c-17 -19 -17 -23 -3 -47 18 -32 50 -40 70 -16 13 16 12
16 -8 4 -19 -12 -24 -12 -42 4 -25 23 -26 34 -4 58 9 10 14 18 11 18 -3 0 -13
-9 -24 -21z"/>
<path d="M1871 1940 c-27 -37 -21 -70 13 -70 22 0 74 45 64 55 -2 3 -15 -6
-28 -20 -27 -29 -48 -32 -57 -9 -3 9 6 27 23 45 15 16 23 29 18 29 -6 0 -20
-14 -33 -30z"/>
<path d="M2987 1878 c-16 -12 -15 -16 9 -50 30 -42 36 -45 53 -24 10 12 9 13
-7 9 -28 -7 -38 15 -16 33 18 14 18 14 -3 5 -26 -13 -41 2 -23 24 15 18 10 19
-13 3z"/>
<path d="M1977 1852 c-21 -23 -21 -31 -2 -69 l15 -31 30 26 c31 28 38 60 18
80 -17 17 -42 15 -61 -6z m61 -18 c4 -31 -24 -57 -49 -44 -23 13 -24 33 -3 55
21 21 48 15 52 -11z"/>
<path d="M2106 1775 c-20 -48 -20 -52 3 -65 26 -13 46 -5 60 26 19 42 11 51
-10 12 -21 -41 -30 -46 -48 -24 -10 11 -9 21 4 46 9 18 14 34 11 37 -3 3 -12
-12 -20 -32z"/>
<path d="M2864 1796 c-7 -19 23 -76 41 -76 16 0 45 27 45 41 0 6 -5 19 -10 30
-13 23 -68 26 -76 5z m66 -17 c11 -20 -1 -49 -21 -49 -8 0 -39 52 -39 65 0 15
51 2 60 -16z"/>
<path d="M2240 1734 c-24 -62 -23 -71 7 -77 24 -4 25 -4 10 8 -24 17 -21 35 6
36 16 1 18 2 5 6 -26 6 -22 31 5 35 l22 3 -23 7 c-18 5 -25 1 -32 -18z"/>
<path d="M2667 1733 c-9 -15 -2 -72 11 -85 10 -10 16 -10 33 0 11 7 23 10 28
8 4 -3 6 6 3 20 -3 18 -7 22 -13 13 -10 -17 -24 -3 -24 24 0 21 -28 36 -38 20z
m27 -24 c-3 -5 -10 -7 -15 -3 -5 3 -7 10 -3 15 3 5 10 7 15 3 5 -3 7 -10 3
-15z m13 -51 c-21 -11 -38 -2 -31 17 5 12 10 12 27 4 18 -10 19 -12 4 -21z"/>
<path d="M2353 1723 c15 -4 17 -12 12 -51 -4 -33 -2 -41 4 -27 5 11 10 30 10
43 1 14 7 22 19 23 14 0 14 2 -3 9 -11 5 -29 8 -40 8 -17 0 -18 -1 -2 -5z"/>
<path d="M2473 1713 c-21 -8 -15 -29 12 -47 29 -19 25 -36 -7 -36 -12 0 -19
-3 -15 -6 10 -10 57 5 57 18 0 7 -12 22 -27 34 l-28 23 25 10 c14 5 18 10 10
10 -8 -1 -21 -3 -27 -6z"/>
</g>
</svg>
